<svg xmlns="http://www.w3.org/2000/svg" width="32" height="32" fill="none" viewBox="0 0 32 32">
  <path fill="#232629" fill-rule="evenodd" d="M10 12.5a.5.5 0 0 1 .5-.5h11a.5.5 0 0 1 0 1h-11a.5.5 0 0 1-.5-.5ZM19 3v4.003a2 2 0 0 0 2 2h4.003L19 3Z" clip-rule="evenodd"/>
  <path fill="#232629" fill-rule="evenodd" d="M19 3H9a2 2 0 0 0-2 2v22.002a2 2 0 0 0 2 2h14a2 2 0 0 0 2-2V9.001h-1v18.001a1 1 0 0 1-1 1H9a1 1 0 0 1-1-1V5a1 1 0 0 1 1-1h10V3Z" clip-rule="evenodd"/>
  <path fill="#232629" fill-rule="evenodd" d="M6 14a2 2 0 0 0-2 2v6a2 2 0 0 0 2 2h20a2 2 0 0 0 2-2v-6a2 2 0 0 0-2-2H6Zm2.007 2.18V22h3.722v-1.016H9.233V16.18H8.007Zm5.833 5.547a2.76 2.76 0 0 0 1.39.351 2.76 2.76 0 0 0 1.387-.348 2.51 2.51 0 0 0 .977-1.015c.24-.445.36-.986.36-1.621 0-.636-.12-1.176-.36-1.621a2.51 2.51 0 0 0-.977-1.02 2.739 2.739 0 0 0-1.387-.351 2.76 2.76 0 0 0-1.39.351 2.51 2.51 0 0 0-.977 1.02c-.24.445-.36.985-.36 1.62 0 .631.12 1.169.36 1.614.24.445.565.785.977 1.02Zm.312-1.223c-.268-.326-.402-.796-.402-1.41 0-.617.134-1.089.402-1.414.271-.328.63-.492 1.079-.492.445 0 .802.164 1.07.492.27.325.406.797.406 1.414 0 .614-.135 1.084-.406 1.41-.268.325-.625.488-1.07.488-.448 0-.808-.163-1.079-.488Zm5.974 1.215c.414.24.893.36 1.438.36.49 0 .924-.099 1.305-.294.38-.198.678-.48.894-.848.216-.367.324-.806.324-1.316v-.734H21.65v.925h1.246c-.008.362-.13.65-.363.864-.232.21-.551.316-.957.316-.464 0-.832-.165-1.106-.496-.27-.333-.406-.803-.406-1.41 0-.607.138-1.074.414-1.402a1.342 1.342 0 0 1 1.082-.497c.318 0 .58.079.789.235.208.154.353.367.434.64h1.246a2.082 2.082 0 0 0-.422-1.019 2.325 2.325 0 0 0-.875-.691 2.764 2.764 0 0 0-1.192-.25c-.513 0-.975.118-1.386.355-.412.237-.737.58-.977 1.027-.24.446-.36.983-.36 1.614 0 .612.115 1.142.345 1.59a2.5 2.5 0 0 0 .964 1.03Z" clip-rule="evenodd"/>
</svg>
