<svg xmlns="http://www.w3.org/2000/svg" width="32" height="32" fill="none" viewBox="0 0 32 32">
  <path fill="#232629" fill-rule="evenodd" d="M29 14c0 6.075-4.925 11-11 11S7 20.075 7 14 11.925 3 18 3s11 4.925 11 11Zm1 0c0 6.627-5.373 12-12 12a11.956 11.956 0 0 1-8.09-3.138L2.881 29.89a.5.5 0 1 1-.707-.707L9.2 22.158A11.958 11.958 0 0 1 6 14C6 7.373 11.373 2 18 2s12 5.373 12 12Z" clip-rule="evenodd"/>
  <path fill="#232629" fill-rule="evenodd" d="M12.646 18.646a.5.5 0 0 0 .708.708L18 14.707l4.646 4.647a.5.5 0 0 0 .708-.708L18.707 14l4.647-4.646a.5.5 0 0 0-.708-.708L18 13.293l-4.646-4.647a.5.5 0 0 0-.708.708L17.293 14l-4.647 4.646Z" clip-rule="evenodd"/>
</svg>
