<svg xmlns="http://www.w3.org/2000/svg" width="32" height="32" fill="none" viewBox="0 0 32 32">
  <path fill="#232629" fill-rule="evenodd" d="M29.035 14c0 6.075-4.924 11-11 11-6.075 0-11-4.925-11-11s4.925-11 11-11c6.076 0 11 4.925 11 11Zm1 0c0 6.627-5.372 12-12 12a11.957 11.957 0 0 1-8.109-3.155L2.882 29.89a.5.5 0 1 1-.707-.707l7.043-7.042A11.957 11.957 0 0 1 6.036 14c0-6.627 5.372-12 12-12 6.627 0 12 5.373 12 12Z" clip-rule="evenodd"/>
  <path fill="#232629" fill-rule="evenodd" d="M24.422 10.268a.5.5 0 0 0-.844-.536l-6.574 10.33-4.58-7.327a.5.5 0 1 0-.848.53l4.994 7.991a.5.5 0 0 0 .857.004l6.995-10.992Z" clip-rule="evenodd"/>
</svg>
