<svg xmlns="http://www.w3.org/2000/svg" width="32" height="32" fill="none" viewBox="0 0 32 32">
  <path fill="#232629" fill-rule="evenodd" d="M5 11.5a.5.5 0 0 1 .5-.5h11a.5.5 0 0 1 0 1h-11a.5.5 0 0 1-.5-.5Zm0 3a.5.5 0 0 1 .5-.5h11a.5.5 0 0 1 0 1h-11a.5.5 0 0 1-.5-.5Zm0 3a.5.5 0 0 1 .5-.5h11a.5.5 0 0 1 0 1h-11a.5.5 0 0 1-.5-.5ZM14 2v4.003a2 2 0 0 0 2 2h4.003L14 2Z" clip-rule="evenodd"/>
  <path fill="#232629" fill-rule="evenodd" d="M4 2h10v1H4a1 1 0 0 0-1 1v22a1 1 0 0 0 1 1h12v1H4a2 2 0 0 1-2-2V4a2 2 0 0 1 2-2Zm16 19V8h-1v13h1Zm-1 4.5a.5.5 0 0 1 .5-.5h10a.5.5 0 0 1 0 1h-10a.5.5 0 0 1-.5-.5Z" clip-rule="evenodd"/>
  <path fill="#232629" fill-rule="evenodd" d="M29.854 25.146a.5.5 0 0 1 0 .708l-4 4a.5.5 0 0 1-.707-.708l4-4a.5.5 0 0 1 .707 0Z" clip-rule="evenodd"/>
  <path fill="#232629" fill-rule="evenodd" d="M29.854 25.854a.5.5 0 0 1-.708 0l-4-4a.5.5 0 0 1 .708-.708l4 4a.5.5 0 0 1 0 .707Z" clip-rule="evenodd"/>
</svg>
