<svg xmlns="http://www.w3.org/2000/svg" width="32" height="32" fill="none" viewBox="0 0 32 32">
  <path fill="#232629" fill-rule="evenodd" d="M4.5 15.5A.5.5 0 0 1 5 15h22a.5.5 0 0 1 0 1H5a.5.5 0 0 1-.5-.5Z" clip-rule="evenodd"/>
  <path fill="#232629" fill-rule="evenodd" d="M3.646 15.854a.5.5 0 0 1 0-.708l8-8a.5.5 0 1 1 .707.708l-8 8a.5.5 0 0 1-.707 0Z" clip-rule="evenodd"/>
  <path fill="#232629" fill-rule="evenodd" d="M3.646 15.146a.5.5 0 0 1 .708 0l8 8a.5.5 0 0 1-.708.708l-8-8a.5.5 0 0 1 0-.707Z" clip-rule="evenodd"/>
</svg>
