<svg xmlns="http://www.w3.org/2000/svg" width="32" height="32" fill="none" viewBox="0 0 32 32">
  <path fill="#232629" fill-rule="evenodd" d="M24.209 8.7c4.04 4.538 3.637 11.49-.9 15.53-4.537 4.041-11.49 3.638-15.53-.899a10.975 10.975 0 0 1-2.692-8.742.517.517 0 0 0-.504-.589.482.482 0 0 0-.482.414 11.976 11.976 0 0 0 2.931 9.582c4.408 4.95 11.993 5.39 16.942.982 4.95-4.408 5.39-11.993.982-16.942-4.408-4.95-11.993-5.39-16.942-.982l-.114.103c-.34.309-.107.843.35.843a.543.543 0 0 0 .364-.142L8.68 7.8c4.537-4.04 11.49-3.637 15.53.9Z" clip-rule="evenodd"/>
  <path fill="#232629" fill-rule="evenodd" d="M7.5 9a.5.5 0 0 1-.5-.5v-6a.5.5 0 0 1 1 0v6a.5.5 0 0 1-.5.5Z" clip-rule="evenodd"/>
  <path fill="#232629" fill-rule="evenodd" d="M7 8.5a.5.5 0 0 1 .5-.5h6a.5.5 0 0 1 0 1h-6a.5.5 0 0 1-.5-.5Z" clip-rule="evenodd"/>
</svg>
