<svg xmlns="http://www.w3.org/2000/svg" width="32" height="32" fill="none" viewBox="0 0 32 32">
  <path fill="#232629" fill-rule="evenodd" d="M16 19a7 7 0 1 0 0-14 7 7 0 0 0 0 14Zm0 1a8 8 0 1 0 0-16 8 8 0 0 0 0 16Z" clip-rule="evenodd"/>
  <path fill="#232629" fill-rule="evenodd" d="m5.535 23.778 5.657-5.657.707.707-5.656 5.657-.708-.707Zm-2.121-2.121L9.071 16l.707.707-5.657 5.657-.707-.707Z" clip-rule="evenodd"/>
  <path fill="#232629" fill-rule="evenodd" d="M5.535 23.778a1 1 0 0 1-1.414-1.414l-.707-.707a2 2 0 1 0 2.829 2.828l-.708-.707ZM15.5 8.03c.275-.033.5-.254.5-.53s-.225-.503-.5-.475a5.002 5.002 0 0 0-4.475 4.476c-.028.274.199.499.475.499.276 0 .497-.225.53-.499a4.002 4.002 0 0 1 3.47-3.47Zm9.119 6.57a8.927 8.927 0 0 1-.344.946l.605.302.51-.51.924-.924 1.414 1.414-.975.975-.49.49.288.632c.06.133.116.27.165.408l.235.667H29v2h-2.049l-.235.667c-.06.167-.127.33-.203.488l-.305.639.5.5 1.02 1.02-1.414 1.414-1.02-1.02-.5-.5-.639.305a4.967 4.967 0 0 1-.488.203L23 24.95V27h-2v-2.049l-.667-.235a4.939 4.939 0 0 1-.407-.165l-.632-.289-.491.491-.975.975-1.414-1.414.925-.925.51-.51-.323-.644a4.938 4.938 0 0 1-.242-.568L17.05 21H15v-.055a8.987 8.987 0 0 1-1-.168V21a1 1 0 0 0 1 1h1.341c.083.234.18.462.29.682l-.29.29-.027.028-.607.607a1 1 0 0 0 0 1.414l1.414 1.414a1 1 0 0 0 1.415 0l.464-.464.312-.312.198-.198c.16.073.323.139.49.198V27a1 1 0 0 0 1 1h2a1 1 0 0 0 1-1v-1.341c.2-.071.397-.153.587-.244l.243.244.17.17.607.606a1 1 0 0 0 1.414 0l1.414-1.414a1 1 0 0 0 0-1.414L27.828 23l-.17-.17-.243-.243a5.94 5.94 0 0 0 .244-.587H29a1 1 0 0 0 1-1v-2a1 1 0 0 0-1-1h-1.341a5.942 5.942 0 0 0-.198-.49l.198-.198.312-.312.464-.465a1 1 0 0 0 0-1.414l-1.414-1.414a1 1 0 0 0-1.414 0l-.607.607-.028.027-.29.29-.063-.03Zm-5.582 5.875a3 3 0 1 0 4.247-3.187 9.037 9.037 0 0 1-.665.81 2 2 0 1 1-2.618 1.966 8.946 8.946 0 0 1-.964.41Z" clip-rule="evenodd"/>
</svg>
