<svg xmlns="http://www.w3.org/2000/svg" width="32" height="32" fill="none" viewBox="0 0 32 32">
  <path fill="#232629" fill-rule="evenodd" d="M27.41 18a.517.517 0 0 1-.505-.588 10.974 10.974 0 0 0-2.696-8.711c-4.04-4.537-10.993-4.94-15.53-.9l-.064.057A.545.545 0 0 1 8.251 8c-.458 0-.69-.534-.351-.843l.114-.103c4.95-4.407 12.534-3.968 16.942.982a11.973 11.973 0 0 1 2.935 9.548.482.482 0 0 1-.482.416Zm-3.638 6a.543.543 0 0 0-.365.143l-.098.088c-4.537 4.04-11.49 3.637-15.53-.9a10.975 10.975 0 0 1-2.692-8.742.517.517 0 0 0-.504-.589.482.482 0 0 0-.482.414 11.976 11.976 0 0 0 2.931 9.582c4.408 4.95 11.993 5.39 16.942.982l.15-.136c.337-.31.105-.842-.352-.842Z" clip-rule="evenodd"/>
  <path fill="#232629" fill-rule="evenodd" d="M7.5 9a.5.5 0 0 1-.5-.5v-6a.5.5 0 0 1 1 0v6a.5.5 0 0 1-.5.5Zm17 21a.5.5 0 0 1-.5-.5v-6a.5.5 0 0 1 1 0v6a.5.5 0 0 1-.5.5Z" clip-rule="evenodd"/>
  <path fill="#232629" fill-rule="evenodd" d="M7 8.5a.5.5 0 0 1 .5-.5h6a.5.5 0 0 1 0 1h-6a.5.5 0 0 1-.5-.5Zm11 15a.5.5 0 0 1 .5-.5h6a.5.5 0 0 1 0 1h-6a.5.5 0 0 1-.5-.5Z" clip-rule="evenodd"/>
</svg>
