<svg xmlns="http://www.w3.org/2000/svg" width="16" height="16" fill="none" viewBox="0 0 16 16">
  <path fill="#232629" fill-rule="evenodd" d="M5 5.5a.5.5 0 0 1 .5-.5h5a.5.5 0 0 1 0 1h-5a.5.5 0 0 1-.5-.5ZM10 1v2a1 1 0 0 0 1 1h2l-3-3Z" clip-rule="evenodd"/>
  <path fill="#232629" fill-rule="evenodd" d="M10 1H5a2 2 0 0 0-2 2v10a2 2 0 0 0 2 2h6a2 2 0 0 0 2-2V4h-1v9a1 1 0 0 1-1 1H5a1 1 0 0 1-1-1V3a1 1 0 0 1 1-1h5V1Z" clip-rule="evenodd"/>
  <path fill="#232629" fill-rule="evenodd" d="M3 7a1 1 0 0 0-1 1v3a1 1 0 0 0 1 1h10a1 1 0 0 0 1-1V8a1 1 0 0 0-1-1H3Zm1.003 1.09V11h1.862v-.508H4.617V8.09h-.614Zm2.917 2.773c.206.117.437.176.695.176.258 0 .49-.058.694-.174.205-.117.368-.286.488-.508.12-.222.18-.492.18-.81 0-.318-.06-.588-.18-.81a1.255 1.255 0 0 0-.488-.51 1.369 1.369 0 0 0-.694-.176c-.258 0-.49.058-.695.176a1.255 1.255 0 0 0-.488.51 1.69 1.69 0 0 0-.18.81c0 .315.06.584.18.806.12.223.282.393.488.51Zm.156-.611c-.134-.163-.201-.398-.201-.705 0-.309.067-.544.201-.707a.664.664 0 0 1 .54-.246c.222 0 .4.082.534.246.136.163.204.398.204.707 0 .307-.068.542-.204.705a.659.659 0 0 1-.535.244.666.666 0 0 1-.539-.244Zm2.987.607c.207.12.447.18.719.18.245 0 .462-.049.652-.146.19-.1.34-.24.448-.424.108-.184.162-.403.162-.658v-.368h-1.22v.463h.624a.573.573 0 0 1-.182.432c-.116.105-.275.158-.478.158a.68.68 0 0 1-.553-.248c-.135-.167-.203-.402-.203-.705 0-.303.069-.537.207-.701a.671.671 0 0 1 .541-.248c.159 0 .29.039.395.117a.593.593 0 0 1 .216.32h.623a1.04 1.04 0 0 0-.21-.51 1.163 1.163 0 0 0-.438-.345 1.382 1.382 0 0 0-.596-.125 1.36 1.36 0 0 0-.693.178 1.26 1.26 0 0 0-.488.513c-.12.223-.18.492-.18.807 0 .306.057.57.172.795.116.222.276.394.482.515Z" clip-rule="evenodd"/>
</svg>
