<svg xmlns="http://www.w3.org/2000/svg" width="16" height="16" fill="none" viewBox="0 0 16 16">
  <path fill="#232629" fill-rule="evenodd" d="M14 7A5 5 0 1 1 4 7a5 5 0 0 1 10 0Zm1 0a6 6 0 0 1-9.872 4.583l-3.771 3.838a.5.5 0 1 1-.714-.7l3.777-3.844A6 6 0 1 1 15 7Z" clip-rule="evenodd"/>
  <path fill="#232629" fill-rule="evenodd" d="M11.929 5.257a.5.5 0 1 0-.858-.514L8.478 9.065 6.916 6.723a.5.5 0 0 0-.832.554l1.994 2.992a.496.496 0 0 0 .224.19.5.5 0 0 0 .632-.21l2.995-4.992Z" clip-rule="evenodd"/>
</svg>
