<svg xmlns="http://www.w3.org/2000/svg" width="16" height="16" fill="none" viewBox="0 0 16 16">
  <path fill="#232629" fill-rule="evenodd" d="M4 5.5a.5.5 0 0 1 .5-.5h5a.5.5 0 0 1 0 1h-5a.5.5 0 0 1-.5-.5Zm0 2a.5.5 0 0 1 .5-.5h5a.5.5 0 0 1 0 1h-5a.5.5 0 0 1-.5-.5Zm0 2a.5.5 0 0 1 .5-.5h5a.5.5 0 0 1 0 1h-5a.5.5 0 0 1-.5-.5ZM9 1v2a1 1 0 0 0 1 1h2L9 1Z" clip-rule="evenodd"/>
  <path fill="#232629" fill-rule="evenodd" d="M4 1h5v1H4a1 1 0 0 0-1 1v10a1 1 0 0 0 1 1h4v1H4a2 2 0 0 1-2-2V3a2 2 0 0 1 2-2Zm8 8V4h-1v5h1Zm-3 3.5a.5.5 0 0 1 .5-.5h5a.5.5 0 0 1 0 1h-5a.5.5 0 0 1-.5-.5Z" clip-rule="evenodd"/>
  <path fill="#232629" fill-rule="evenodd" d="M14.854 12.146a.5.5 0 0 1 0 .708l-2 2a.5.5 0 0 1-.707-.708l2-2a.5.5 0 0 1 .707 0Z" clip-rule="evenodd"/>
  <path fill="#232629" fill-rule="evenodd" d="M14.854 12.854a.5.5 0 0 1-.708 0l-2-2a.5.5 0 0 1 .708-.708l2 2a.5.5 0 0 1 0 .707Z" clip-rule="evenodd"/>
</svg>
