<svg xmlns="http://www.w3.org/2000/svg" width="16" height="16" fill="none" viewBox="0 0 16 16">
  <path fill="#232629" fill-rule="evenodd" d="M1.5 7.5A.5.5 0 0 1 2 7h12a.5.5 0 0 1 0 1H2a.5.5 0 0 1-.5-.5Z" clip-rule="evenodd"/>
  <path fill="#232629" fill-rule="evenodd" d="M14.354 7.146a.5.5 0 0 1 0 .708l-4 4a.5.5 0 0 1-.708-.708l4-4a.5.5 0 0 1 .708 0Z" clip-rule="evenodd"/>
  <path fill="#232629" fill-rule="evenodd" d="M14.354 7.854a.5.5 0 0 1-.708 0l-4-4a.5.5 0 1 1 .708-.708l4 4a.5.5 0 0 1 0 .708Z" clip-rule="evenodd"/>
</svg>
