<svg xmlns="http://www.w3.org/2000/svg" width="16" height="16" fill="none" viewBox="0 0 16 16">
  <path fill="#232629" fill-rule="evenodd" d="M12.912 8a5 5 0 1 1-9.984-.405C2.952 7.285 2.72 7 2.41 7a.465.465 0 0 0-.47.412 6 6 0 1 0 1.3-3.177c-.26.321-.01.765.403.765a.57.57 0 0 0 .435-.21A5 5 0 0 1 12.912 8Z" clip-rule="evenodd"/>
  <path fill="#232629" fill-rule="evenodd" d="M3.5 5a.5.5 0 0 1-.5-.5v-3a.5.5 0 0 1 1 0v3a.5.5 0 0 1-.5.5Z" clip-rule="evenodd"/>
  <path fill="#232629" fill-rule="evenodd" d="M3 4.5a.5.5 0 0 1 .5-.5h3a.5.5 0 0 1 0 1h-3a.5.5 0 0 1-.5-.5Z" clip-rule="evenodd"/>
</svg>
