<svg xmlns="http://www.w3.org/2000/svg" width="16" height="16" fill="none" viewBox="0 0 16 16">
  <path fill="#232629" fill-rule="evenodd" d="M8 8a3 3 0 1 0 0-6 3 3 0 0 0 0 6Zm0 1a4 4 0 1 0 0-8 4 4 0 0 0 0 8Z" clip-rule="evenodd"/>
  <path fill="#232629" fill-rule="evenodd" d="M8 3.5c0-.276-.227-.506-.495-.438a2.003 2.003 0 0 0-1.443 1.443c-.069.268.162.495.438.495s.49-.237.622-.48a1.01 1.01 0 0 1 .398-.398C7.763 3.99 8 3.776 8 3.5Zm-6.354 7.854a.5.5 0 0 1 0-.708L5 7.293 5.707 8l-3.353 3.354a.5.5 0 0 1-.708 0ZM6.133 9.64a1.18 1.18 0 0 0-.133.546v.628c0 .61.46 1.112 1.052 1.178a1.188 1.188 0 0 0 .08 1.59l.392.392c.415.415 1.047.48 1.53.194.15.482.6.832 1.132.832h.628c.546 0 1.006-.37 1.144-.872a1.271 1.271 0 0 0 1.597-.163l.352-.352a1.232 1.232 0 0 0 .1-1.629c.563-.092.993-.58.993-1.17v-.628c0-.538-.357-.991-.848-1.137a1.187 1.187 0 0 0-.213-1.388l-.492-.492c-.22-.22-.509-.33-.797-.327a4.999 4.999 0 0 1-.872 1.433.807.807 0 0 0 .63-.234l.165-.165a.118.118 0 0 1 .167 0l.492.492a.186.186 0 0 1 0 .264l-.26.26A.649.649 0 0 0 13.431 10h.383c.103 0 .186.083.186.186v.628a.186.186 0 0 1-.186.186h-.296a.783.783 0 0 0-.717.48.782.782 0 0 0 .161.861l.238.238c.09.09.09.237 0 .327l-.352.352a.27.27 0 0 1-.383 0l-.288-.288a.688.688 0 0 0-.744-.15.689.689 0 0 0-.433.637v.357a.186.186 0 0 1-.186.186h-.628a.186.186 0 0 1-.186-.186v-.383a.649.649 0 0 0-1.108-.459l-.295.295a.259.259 0 0 1-.366 0l-.391-.392a.188.188 0 0 1 0-.265l.202-.202a.82.82 0 0 0 .165-.91.822.822 0 0 0-.75-.498h-.271A.186.186 0 0 1 7 10.814v-.628c0-.103.083-.186.186-.186h.357a.685.685 0 0 0 .122-.011 4.974 4.974 0 0 1-1.532-.35Zm3.005.23a1.5 1.5 0 1 0 1.781-.81 4.982 4.982 0 0 1-1.78.81Zm.862.63a.5.5 0 1 1 1 0 .5.5 0 0 1-1 0Z" clip-rule="evenodd"/>
</svg>
