<svg xmlns="http://www.w3.org/2000/svg" width="16" height="16" fill="none" viewBox="0 0 16 16">
  <path fill="#232629" fill-rule="evenodd" d="M13.413 9c-.311 0-.543-.285-.518-.595A5 5 0 0 0 4.077 4.79a.57.57 0 0 1-.434.21c-.412 0-.662-.444-.403-.765a6 6 0 0 1 10.643 4.353.465.465 0 0 1-.47.412Zm-1.233 2a.57.57 0 0 0-.435.21 5 5 0 0 1-8.818-3.615C2.953 7.285 2.722 7 2.41 7a.465.465 0 0 0-.47.412 6 6 0 0 0 10.643 4.353c.26-.321.01-.765-.403-.765Z" clip-rule="evenodd"/>
  <path fill="#232629" fill-rule="evenodd" d="M3.5 5a.5.5 0 0 1-.5-.5v-3a.5.5 0 0 1 1 0v3a.5.5 0 0 1-.5.5Zm9 10a.5.5 0 0 1-.5-.5v-3a.5.5 0 0 1 1 0v3a.5.5 0 0 1-.5.5Z" clip-rule="evenodd"/>
  <path fill="#232629" fill-rule="evenodd" d="M3 4.5a.5.5 0 0 1 .5-.5h3a.5.5 0 0 1 0 1h-3a.5.5 0 0 1-.5-.5Zm6 7a.5.5 0 0 1 .5-.5h3a.5.5 0 0 1 0 1h-3a.5.5 0 0 1-.5-.5Z" clip-rule="evenodd"/>
</svg>
