<svg xmlns="http://www.w3.org/2000/svg" width="22" height="22" fill="none" viewBox="0 0 22 22">
  <path fill="#232629" fill-rule="evenodd" d="M7 7.5a.5.5 0 0 1 .5-.5h6a.5.5 0 0 1 0 1h-6a.5.5 0 0 1-.5-.5ZM13 2v2.623c0 .762.618 1.38 1.38 1.38h2.623L13 2Z" clip-rule="evenodd"/>
  <path fill="#232629" fill-rule="evenodd" d="M13 2H6a2 2 0 0 0-2 2v5h1V4a1 1 0 0 1 1-1h7V2Zm3 4v3h1V6h-1Zm0 10h1v2a2 2 0 0 1-2 2H6a2 2 0 0 1-2-2v-2h1v2a1 1 0 0 0 1 1h9a1 1 0 0 0 1-1v-2ZM3.38 9A1.38 1.38 0 0 0 2 10.38v4.24c0 .762.618 1.38 1.38 1.38h14.24A1.38 1.38 0 0 0 19 14.62v-4.24A1.38 1.38 0 0 0 17.62 9H3.38Zm.627 1.635V15h2.792v-.762H4.927v-3.603h-.92Zm4.873 4.16a2.07 2.07 0 0 0 1.043.264 2.07 2.07 0 0 0 1.04-.261c.309-.176.553-.43.732-.762.18-.334.27-.74.27-1.216s-.09-.882-.27-1.216a1.883 1.883 0 0 0-.732-.764 2.054 2.054 0 0 0-1.04-.264 2.07 2.07 0 0 0-1.043.264c-.309.176-.553.43-.733.764-.18.335-.27.74-.27 1.216 0 .473.09.876.27 1.21.18.334.424.59.733.765Zm.234-.917c-.2-.244-.302-.597-.302-1.058 0-.463.101-.816.302-1.06a.996.996 0 0 1 .809-.37c.334 0 .601.124.803.37.203.244.304.597.304 1.06 0 .461-.101.814-.304 1.058a.988.988 0 0 1-.803.366 1 1 0 0 1-.809-.366Zm4.979.911c.31.18.67.27 1.078.27.367 0 .693-.074.978-.22.285-.149.51-.36.671-.636.162-.275.243-.604.243-.987v-.551h-1.828v.694h.935c-.006.272-.097.488-.273.648-.173.158-.413.237-.717.237-.348 0-.624-.124-.83-.372-.203-.25-.304-.602-.304-1.057 0-.456.103-.806.31-1.052.207-.248.478-.372.812-.372a.96.96 0 0 1 .592.175.889.889 0 0 1 .325.48h.934a1.561 1.561 0 0 0-.316-.764 1.744 1.744 0 0 0-.656-.518 2.073 2.073 0 0 0-.894-.188c-.385 0-.731.089-1.04.267a1.898 1.898 0 0 0-.732.77c-.18.334-.27.738-.27 1.21 0 .46.086.857.258 1.193.174.334.415.591.724.773Z" clip-rule="evenodd"/>
</svg>
