<svg xmlns="http://www.w3.org/2000/svg" width="22" height="22" fill="none" viewBox="0 0 22 22">
  <path fill="#232629" fill-rule="evenodd" d="M19 10a7 7 0 1 1-14 0 7 7 0 0 1 14 0Zm1 0a8 8 0 0 1-12.966 6.273l-.08.08-4.243 4.243a.5.5 0 1 1-.707-.707l4.242-4.243.044-.043A8 8 0 1 1 20 10Z" clip-rule="evenodd"/>
  <path fill="#232629" fill-rule="evenodd" d="M16.422 7.185a.5.5 0 0 0-.844-.537l-4.24 6.665-2.914-4.661a.5.5 0 1 0-.848.53l3.328 5.324a.499.499 0 0 0 .857.004l4.66-7.325Z" clip-rule="evenodd"/>
</svg>
