<svg xmlns="http://www.w3.org/2000/svg" width="22" height="22" fill="none" viewBox="0 0 22 22">
  <path fill="#232629" fill-rule="evenodd" d="M19 10a7 7 0 1 1-14 0 7 7 0 0 1 14 0Zm1 0a8 8 0 0 1-12.966 6.273l-.08.08-4.243 4.243a.5.5 0 1 1-.707-.707l4.242-4.243.044-.043A8 8 0 1 1 20 10Z" clip-rule="evenodd"/>
  <path fill="#232629" fill-rule="evenodd" d="M9.354 6.646a.5.5 0 1 0-.708.708L11.293 10l-2.647 2.646a.5.5 0 0 0 .708.708L12 10.707l2.646 2.647a.5.5 0 0 0 .708-.708L12.707 10l2.647-2.646a.5.5 0 0 0-.708-.708L12 9.293 9.354 6.646Z" clip-rule="evenodd"/>
</svg>
