<svg xmlns="http://www.w3.org/2000/svg" width="22" height="22" fill="none" viewBox="0 0 22 22">
  <path fill="#232629" fill-rule="evenodd" d="M18.5 10.515a.5.5 0 0 1-.5.5H3a.5.5 0 1 1 0-1h15a.5.5 0 0 1 .5.5Z" clip-rule="evenodd"/>
  <path fill="#232629" fill-rule="evenodd" d="M19.354 10.162a.5.5 0 0 1 0 .707l-5.516 5.515a.5.5 0 1 1-.707-.707l5.515-5.515a.5.5 0 0 1 .708 0Z" clip-rule="evenodd"/>
  <path fill="#232629" fill-rule="evenodd" d="M19.354 10.869a.5.5 0 0 1-.708 0l-5.515-5.515a.5.5 0 0 1 .707-.708l5.516 5.516a.5.5 0 0 1 0 .707Z" clip-rule="evenodd"/>
</svg>
