<svg xmlns="http://www.w3.org/2000/svg" width="22" height="22" fill="none" viewBox="0 0 22 22">
  <path fill="#232629" fill-rule="evenodd" d="M16.228 6.345a7 7 0 1 1-12.215 4.224A.528.528 0 0 0 3.5 10a.474.474 0 0 0-.48.435 8 8 0 1 0 2.498-5.262c-.33.311-.091.827.362.827a.564.564 0 0 0 .38-.152l.085-.076a7 7 0 0 1 9.883.573Z" clip-rule="evenodd"/>
  <path fill="#232629" fill-rule="evenodd" d="M5.5 7a.5.5 0 0 1-.5-.5v-4a.5.5 0 0 1 1 0v4a.5.5 0 0 1-.5.5Z" clip-rule="evenodd"/>
  <path fill="#232629" fill-rule="evenodd" d="M5 6.5a.5.5 0 0 1 .5-.5h4a.5.5 0 0 1 0 1h-4a.5.5 0 0 1-.5-.5Z" clip-rule="evenodd"/>
</svg>
