<svg xmlns="http://www.w3.org/2000/svg" width="22" height="22" fill="none" viewBox="0 0 22 22">
  <path fill="#232629" fill-rule="evenodd" d="M11 11a4 4 0 1 0 0-8 4 4 0 0 0 0 8Zm0 1a5 5 0 1 0 0-10 5 5 0 0 0 0 10Z" clip-rule="evenodd"/>
  <path fill="#232629" fill-rule="evenodd" d="m4.793 13.914 3.535-3.535.707.707L5.5 14.62l-.707-.707ZM3.379 12.5l3.535-3.536.707.708-3.535 3.535-.707-.707Z" clip-rule="evenodd"/>
  <path fill="#232629" fill-rule="evenodd" d="M4.793 13.914c-.253.252-.531.376-.745.407-.214.03-.295-.033-.316-.053-.02-.02-.083-.103-.053-.316.03-.214.154-.493.407-.745l-.707-.707.017-.017a7.217 7.217 0 0 0-.017.017c-.781.781-.94 1.89-.354 2.475.586.586 1.694.427 2.475-.354l-.707-.707Zm5.712-8.852c.268-.068.495-.286.495-.562 0-.276-.226-.504-.498-.459a3.003 3.003 0 0 0-2.46 2.461c-.046.272.182.498.458.498s.494-.227.562-.495a2.003 2.003 0 0 1 1.443-1.443Zm-.262 7.891a.172.172 0 0 1-.109.047C9.508 13 9 13.508 9 14.134v.732C9 15.492 9.508 16 10.134 16c.05 0 .134.039.179.15.018.049.038.096.059.144.048.11.016.197-.02.232a1.134 1.134 0 0 0 0 1.605l.517.517a1.135 1.135 0 0 0 1.605 0c.035-.036.122-.068.232-.02l.143.06c.112.044.151.128.151.178 0 .626.508 1.134 1.134 1.134h.732c.626 0 1.134-.508 1.134-1.134 0-.05.039-.134.15-.179a4.36 4.36 0 0 0 .144-.059c.11-.048.197-.016.232.02a1.134 1.134 0 0 0 1.605 0l.517-.517a1.134 1.134 0 0 0 0-1.605c-.036-.035-.068-.122-.02-.232l.06-.143c.044-.112.128-.151.178-.151.626 0 1.134-.508 1.134-1.134v-.732c0-.626-.508-1.134-1.134-1.134-.05 0-.134-.039-.179-.15a4.598 4.598 0 0 0-.059-.144c-.048-.11-.016-.197.02-.232a1.134 1.134 0 0 0 0-1.605l-.517-.517a1.134 1.134 0 0 0-1.605 0c-.035.036-.122.068-.232.02a4.36 4.36 0 0 0-.143-.06.27.27 0 0 1-.103-.068 6.03 6.03 0 0 1-.61.794c.105.087.222.156.346.205.037.014.074.03.11.046.421.183.965.145 1.34-.23a.134.134 0 0 1 .19 0l.516.518a.134.134 0 0 1 0 .19c-.374.374-.412.918-.229 1.338.016.037.032.074.046.111.168.426.58.784 1.109.784.074 0 .134.06.134.134v.732c0 .074-.06.134-.134.134-.53 0-.94.358-1.109.784l-.046.11c-.183.421-.145.965.23 1.34a.135.135 0 0 1 0 .19l-.518.517a.134.134 0 0 1-.19 0c-.374-.375-.918-.413-1.338-.23a3.354 3.354 0 0 1-.111.046c-.426.168-.784.58-.784 1.109 0 .074-.06.134-.134.134h-.732a.134.134 0 0 1-.134-.134c0-.53-.358-.94-.784-1.109a3.585 3.585 0 0 1-.11-.046c-.421-.183-.965-.145-1.34.23a.135.135 0 0 1-.19 0l-.517-.517a.135.135 0 0 1 0-.19c.375-.375.413-.919.23-1.34a3.577 3.577 0 0 1-.046-.11c-.168-.426-.58-.784-1.109-.784a.134.134 0 0 1-.134-.134v-.732c0-.074.06-.134.134-.134.53 0 .94-.358 1.109-.784.014-.037.03-.074.046-.11a1.59 1.59 0 0 0 .043-.115 6.097 6.097 0 0 1-1.09-.038Zm2.47-.201a2.5 2.5 0 1 0 1.594-.745 5.973 5.973 0 0 1-1.594.745ZM13 14.5a1.5 1.5 0 1 1 3 0 1.5 1.5 0 0 1-3 0Z" clip-rule="evenodd"/>
</svg>
