<svg xmlns="http://www.w3.org/2000/svg" width="22" height="22" fill="none" viewBox="0 0 22 22">
  <path fill="#232629" fill-rule="evenodd" d="M18.5 12a.528.528 0 0 1-.513-.569A7 7 0 0 0 6.26 5.848.564.564 0 0 1 5.88 6c-.454 0-.693-.516-.363-.827a8 8 0 0 1 13.462 6.392.474.474 0 0 1-.48.435Zm-2.38 4a.564.564 0 0 0-.38.152 7 7 0 0 1-11.726-5.583A.528.528 0 0 0 3.5 10a.474.474 0 0 0-.48.435 8 8 0 0 0 13.462 6.392c.33-.311.091-.827-.363-.827Z" clip-rule="evenodd"/>
  <path fill="#232629" fill-rule="evenodd" d="M5.5 7a.5.5 0 0 1-.5-.5v-4a.5.5 0 0 1 1 0v4a.5.5 0 0 1-.5.5Zm11 13a.5.5 0 0 1-.5-.5v-4a.5.5 0 0 1 1 0v4a.5.5 0 0 1-.5.5Z" clip-rule="evenodd"/>
  <path fill="#232629" fill-rule="evenodd" d="M5 6.5a.5.5 0 0 1 .5-.5h4a.5.5 0 0 1 0 1h-4a.5.5 0 0 1-.5-.5Zm7 9a.5.5 0 0 1 .5-.5h4a.5.5 0 0 1 0 1h-4a.5.5 0 0 1-.5-.5Z" clip-rule="evenodd"/>
</svg>
